<!DOCTYPE svg PUBLIC "-//W3C//DTD SVG 1.1//EN" "http://www.w3.org/Graphics/SVG/1.1/DTD/svg11.dtd">
<!-- Uploaded to: SVG Repo, www.svgrepo.com, Transformed by: SVG Repo Mixer Tools -->
<svg fill="#c7c7c7" width="173px" height="173px" viewBox="-3.2 -3.2 38.40 38.40" id="Layer_1" data-name="Layer 1" xmlns="http://www.w3.org/2000/svg">
<g id="SVGRepo_bgCarrier" stroke-width="0"/>
<g id="SVGRepo_tracerCarrier" stroke-linecap="round" stroke-linejoin="round"/>
<g id="SVGRepo_iconCarrier"> <defs> <style> .cls-1 { fill: none; } </style> </defs> <path d="M22,24H18V22h4V18h2v4A2.0021,2.0021,0,0,1,22,24Z" transform="translate(0 0)"/> <path d="M10,14H8V10a2.0022,2.0022,0,0,1,2-2h4v2H10Z" transform="translate(0 0)"/> <path d="M28,8H24V4a2.0023,2.0023,0,0,0-2-2H4A2.0023,2.0023,0,0,0,2,4V22a2.0023,2.0023,0,0,0,2,2H8v4a2.0023,2.0023,0,0,0,2,2H28a2.0023,2.0023,0,0,0,2-2V10A2.0023,2.0023,0,0,0,28,8Zm0,20H10V24h4V22H10V18H8v4H4V4H22V8H18v2h4v4h2V10h4Z" transform="translate(0 0)"/> <rect id="_Transparent_Rectangle_" data-name="&lt;Transparent Rectangle&gt;" class="cls-1" width="32" height="32"/> </g>
</svg>